name C:/MyDriveSym/Projects/mobilecap/Data\Session20210820_0002\mocap\ForceDataProcessed\walkingTS3_forces.mot
datacolumns 19
datarows 9
range 0.36450000 0.36850000
endheader 
time	R_ground_force_vx	R_ground_force_vy	R_ground_force_vz	R_ground_force_px	R_ground_force_py	R_ground_force_pz	R_ground_torque_x	R_ground_torque_y	R_ground_torque_z	L_ground_force_vx	L_ground_force_vy	L_ground_force_vz	L_ground_force_px	L_ground_force_py	L_ground_force_pz	L_ground_torque_x	L_ground_torque_y	L_ground_torque_z	
          0.36450000	         28.19328800	        700.87811500	        -28.19534200	          0.19218400	          0.00600000	         -0.15660400	          0.00000000	         -3.20310200	          0.00000000	          0.00000000	          0.00000000	          0.00000000	          0.72614900	          0.00000000	         -0.24789500	          0.00000000	          0.00000000	          0.00000000	
          0.36500000	         28.30521500	        701.31100800	        -28.20925100	          0.19247100	          0.00600000	         -0.15660400	          0.00000000	         -3.21421400	          0.00000000	          0.00000000	          0.00000000	          0.00000000	          0.72614900	          0.00000000	         -0.24789500	          0.00000000	          0.00000000	          0.00000000	
          0.36550000	         28.41625500	        701.74638200	        -28.22359300	          0.19275900	          0.00600000	         -0.15660300	          0.00000000	         -3.22524100	          0.00000000	          0.00000000	          0.00000000	          0.00000000	          0.72614900	          0.00000000	         -0.24789500	          0.00000000	          0.00000000	          0.00000000	
          0.36600000	         28.52641800	        702.18421600	        -28.23836400	          0.19304900	          0.00600000	         -0.15660200	          0.00000000	         -3.23618300	          0.00000000	          0.00000000	          0.00000000	          0.00000000	          0.72614900	          0.00000000	         -0.24789500	          0.00000000	          0.00000000	          0.00000000	
          0.36650000	         28.63571300	        702.62448600	        -28.25356200	          0.19333800	          0.00600000	         -0.15660000	          0.00000000	         -3.24703900	          0.00000000	          0.00000000	          0.00000000	          0.00000000	          0.72614900	          0.00000000	         -0.24789500	          0.00000000	          0.00000000	          0.00000000	
          0.36700000	         28.74414900	        703.06717200	        -28.26918200	          0.19362900	          0.00600000	         -0.15659800	          0.00000000	         -3.25780900	          0.00000000	          0.00000000	          0.00000000	          0.00000000	          0.72614900	          0.00000000	         -0.24789500	          0.00000000	          0.00000000	          0.00000000	
          0.36750000	         28.85173600	        703.51225400	        -28.28522000	          0.19392100	          0.00600000	         -0.15659500	          0.00000000	         -3.26849300	          0.00000000	          0.00000000	          0.00000000	          0.00000000	          0.72614900	          0.00000000	         -0.24789500	          0.00000000	          0.00000000	          0.00000000	
          0.36800000	         28.95848400	        703.95970900	        -28.30167400	          0.19421300	          0.00600000	         -0.15659200	          0.00000000	         -3.27908900	          0.00000000	          0.00000000	          0.00000000	          0.00000000	          0.72614900	          0.00000000	         -0.24789500	          0.00000000	          0.00000000	          0.00000000	
          0.36850000	         29.06440300	        704.40951800	        -28.31854000	          0.19450600	          0.00600000	         -0.15658900	          0.00000000	         -3.28959800	          0.00000000	          0.00000000	          0.00000000	          0.00000000	          0.72614900	          0.00000000	         -0.24789500	          0.00000000	          0.00000000	          0.00000000	
